<svg width="174" height="182" viewBox="0 0 174 182" fill="none" xmlns="http://www.w3.org/2000/svg">
<path fill-rule="evenodd" clip-rule="evenodd" d="M87 166.05C126.285 166.05 158.131 134.169 158.131 94.8415C158.131 55.5141 126.285 23.633 87 23.633C47.7153 23.633 15.8688 55.5141 15.8688 94.8415C15.8688 134.169 47.7153 166.05 87 166.05Z" stroke="#3AD29F" stroke-width="0.613889" stroke-dasharray="3.68 3.68"/>
<path fill-rule="evenodd" clip-rule="evenodd" d="M87 181.155C134.618 181.155 173.22 142.511 173.22 94.8415C173.22 47.172 134.618 8.52823 87 8.52823C39.3822 8.52823 0.780273 47.172 0.780273 94.8415C0.780273 142.511 39.3822 181.155 87 181.155Z" stroke="#3AD29F" stroke-width="0.613889" stroke-dasharray="3.68 3.68"/>
<path d="M144.705 122.34C144.707 112.29 137.07 103.89 127.076 102.949C117.082 102.009 108.014 108.836 106.146 118.71L46.3689 117.086L47.0251 127.367C47.0251 127.367 38.5013 147.056 83.2997 152.302V172.202H135.089V139.115C141.04 135.627 144.699 129.243 144.705 122.34Z" fill="url(#paint0_linear_30_390)"/>
<path d="M49.0777 127.799C49.0777 127.799 40.9156 146.653 83.8171 151.684V170.749H133.415V120.258L48.4407 117.952L49.0777 127.799Z" fill="#BE7C5E"/>
<path d="M73.8658 49.1171C71.1736 53.37 65.5559 54.6479 61.2921 51.9774L34.6622 34.4102C30.4139 31.7151 29.1373 26.0913 31.805 21.8229C34.4968 17.5758 40.1073 16.2985 44.3691 18.9626L70.999 36.5297C75.2507 39.2217 76.5317 44.8462 73.8658 49.1171Z" fill="url(#paint1_linear_30_390)"/>
<path d="M72.3906 48.1581C69.8881 52.1112 64.6664 53.2992 60.703 50.817L35.9412 34.475C31.9923 31.9698 30.8057 26.7424 33.2851 22.7748C35.7876 18.8216 41.0094 17.6337 44.9727 20.1158L69.7297 36.4482C73.6861 38.9522 74.8757 44.1872 72.3906 48.1581Z" fill="#BE7C5E"/>
<path d="M124 141.628C134.287 141.628 142.626 133.28 142.626 122.982C142.626 112.684 134.287 104.336 124 104.336C113.713 104.336 105.374 112.684 105.374 122.982C105.374 133.28 113.713 141.628 124 141.628Z" fill="#BE7C5E"/>
<path d="M120.647 0H49.2957C47.6754 0 46.3618 1.31496 46.3618 2.93705V136.593C46.3618 138.215 47.6754 139.53 49.2957 139.53H120.647C122.268 139.53 123.581 138.215 123.581 136.593V2.93705C123.581 1.31496 122.268 0 120.647 0Z" fill="url(#paint2_linear_30_390)"/>
<path d="M119.268 1.88686H50.6703C48.8661 1.88686 47.4036 3.35103 47.4036 5.15717V134.378C47.4036 136.184 48.8661 137.648 50.6703 137.648H119.268C121.072 137.648 122.534 136.184 122.534 134.378V5.15717C122.534 3.35103 121.072 1.88686 119.268 1.88686Z" fill="white"/>
<path d="M103.844 5.29146C103.395 8.2664 100.845 10.4686 97.8397 10.4775H71.8924C68.8879 10.4675 66.3395 8.26551 65.8905 5.29146H52.1433C51.3864 5.29146 50.6602 5.59139 50.1248 6.12698C49.5893 6.66256 49.2885 7.38924 49.2885 8.14699V131.383C49.2885 132.141 49.5881 132.868 50.1231 133.404C50.6581 133.94 51.384 134.241 52.1409 134.241H117.797C118.554 134.241 119.28 133.941 119.816 133.406C120.351 132.87 120.652 132.143 120.652 131.386V8.14939C120.652 7.39164 120.352 6.66471 119.817 6.12867C119.282 5.59264 118.557 5.29146 117.8 5.29146H103.844Z" fill="#2F56F8"/>
<path d="M92.9684 6.91463H77.183C76.9184 6.91463 76.704 7.12931 76.704 7.39415V7.48286C76.704 7.74769 76.9184 7.96238 77.183 7.96238H92.9684C93.2329 7.96238 93.4474 7.74769 93.4474 7.48286V7.39415C93.4474 7.12931 93.2329 6.91463 92.9684 6.91463Z" fill="#DBDBDB"/>
<path d="M97.0039 8.11539C97.4348 8.11539 97.7842 7.76567 97.7842 7.33427C97.7842 6.90287 97.4348 6.55315 97.0039 6.55315C96.573 6.55315 96.2236 6.90287 96.2236 7.33427C96.2236 7.76567 96.573 8.11539 97.0039 8.11539Z" fill="#DBDBDB"/>
<path d="M136.04 126.272C130.634 127.523 126.924 123.994 125.674 118.585L113.254 72.4144C112.018 66.9845 115.394 61.5745 120.81 60.3042C126.234 59.067 131.638 62.4463 132.907 67.8686L143.043 115.231C144.293 120.642 141.443 125.02 136.04 126.272Z" fill="url(#paint3_linear_30_390)"/>
<path d="M131.514 68.9988C130.46 64.4329 125.908 61.5868 121.347 62.6417C116.786 63.6967 113.943 68.2533 114.997 72.8192L126.418 122.304C127.472 126.87 132.024 129.716 136.584 128.661C141.145 127.606 143.989 123.049 142.935 118.483L131.514 68.9988Z" fill="#BE7C5E"/>
<path d="M142.547 164.511H71.6553V181.054H142.547V164.511Z" fill="url(#paint4_linear_30_390)"/>
<path d="M140.631 166.429H73.5713V179.376H140.631V166.429Z" fill="#4D8AF0"/>
<path d="M63.5291 98.6465C60.8696 102.849 55.319 104.112 51.1062 101.473L33.2468 89.9049C29.049 87.2425 27.7874 81.6859 30.4231 77.4686C33.0826 73.2662 38.6332 72.0032 42.8459 74.6418L60.7054 86.2102C64.9032 88.8726 66.1648 94.4292 63.5291 98.6465Z" fill="url(#paint5_linear_30_390)"/>
<path d="M59.0456 123.133C56.3624 127.374 50.7613 128.649 46.5102 125.986L35.4478 117.911C31.2115 115.225 29.938 109.618 32.5977 105.362C35.281 101.121 40.882 99.8464 45.1331 102.509L56.1956 110.587C60.4304 113.273 61.7037 118.878 59.0456 123.133Z" fill="url(#paint6_linear_30_390)"/>
<g opacity="0.5">
<path opacity="0.5" d="M84.969 91.3314C96.8656 91.3314 106.51 81.6769 106.51 69.7675C106.51 57.8581 96.8656 48.2036 84.969 48.2036C73.0725 48.2036 63.4285 57.8581 63.4285 69.7675C63.4285 81.6769 73.0725 91.3314 84.969 91.3314Z" fill="url(#paint7_linear_30_390)"/>
</g>
<path d="M84.969 90.0632C96.1658 90.0632 105.243 80.9765 105.243 69.7676C105.243 58.5586 96.1658 49.4719 84.969 49.4719C73.7722 49.4719 64.6954 58.5586 64.6954 69.7676C64.6954 80.9765 73.7722 90.0632 84.969 90.0632Z" fill="#69F0AE"/>
<path d="M76.1699 67.0583L83.7716 74.0353L94.5419 58.18L98.3452 61.352L83.7716 80.3793L73.0013 68.329L76.1699 67.0583Z" fill="white"/>
<path d="M58.1523 122.531C55.6498 126.484 50.4281 127.672 46.4647 125.19L36.1471 117.671C32.1983 115.166 31.0116 109.939 33.4911 105.971C35.9936 102.018 41.2153 100.83 45.1786 103.312L55.4939 110.845C59.4348 113.349 60.6216 118.566 58.1523 122.531Z" fill="#BE7C5E"/>
<path d="M62.5471 98.0112C60.0447 101.964 54.8229 103.152 50.8596 100.67L34.0563 89.785C30.1074 87.2798 28.9208 82.0524 31.4003 78.0848C33.9027 74.1316 39.1245 72.9437 43.0878 75.4258L59.8911 86.3109C63.84 88.8161 65.0266 94.0435 62.5471 98.0112Z" fill="#BE7C5E"/>
<path d="M68.1466 74.2749C65.474 78.4957 59.8984 79.7639 55.6663 77.1137L33.0336 62.3613C28.8174 59.6858 27.5506 54.1042 30.1979 49.8675C32.8706 45.6467 38.4462 44.3785 42.6783 47.0287L65.3109 61.7811C69.5271 64.4566 70.794 70.0382 68.1466 74.2749Z" fill="url(#paint8_linear_30_390)"/>
<path d="M66.9444 73.5077C64.4419 77.4609 59.2202 78.6488 55.2568 76.1667L34.0587 62.3493C30.1099 59.8441 28.9232 54.6167 31.4027 50.6491C33.9052 46.696 39.1269 45.508 43.0903 47.9902L64.2859 61.8075C68.2356 64.3119 69.4234 69.5395 66.9444 73.5077Z" fill="#BE7C5E"/>
<defs>
<linearGradient id="paint0_linear_30_390" x1="95.5405" y1="172.214" x2="95.5405" y2="102.866" gradientUnits="userSpaceOnUse">
<stop stop-color="#808080" stop-opacity="0.25"/>
<stop offset="0.54" stop-color="#808080" stop-opacity="0.12"/>
<stop offset="1" stop-color="#808080" stop-opacity="0.1"/>
</linearGradient>
<linearGradient id="paint1_linear_30_390" x1="52.833" y1="53.3752" x2="52.833" y2="17.5696" gradientUnits="userSpaceOnUse">
<stop stop-color="#808080" stop-opacity="0.25"/>
<stop offset="0.54" stop-color="#808080" stop-opacity="0.12"/>
<stop offset="1" stop-color="#808080" stop-opacity="0.1"/>
</linearGradient>
<linearGradient id="paint2_linear_30_390" x1="84.9715" y1="139.528" x2="84.9715" y2="-0.0023952" gradientUnits="userSpaceOnUse">
<stop stop-color="#808080" stop-opacity="0.25"/>
<stop offset="0.54" stop-color="#808080" stop-opacity="0.12"/>
<stop offset="1" stop-color="#808080" stop-opacity="0.1"/>
</linearGradient>
<linearGradient id="paint3_linear_30_390" x1="128.165" y1="126.521" x2="128.165" y2="60.0453" gradientUnits="userSpaceOnUse">
<stop stop-color="#808080" stop-opacity="0.25"/>
<stop offset="0.54" stop-color="#808080" stop-opacity="0.12"/>
<stop offset="1" stop-color="#808080" stop-opacity="0.1"/>
</linearGradient>
<linearGradient id="paint4_linear_30_390" x1="107.106" y1="181.049" x2="107.106" y2="164.506" gradientUnits="userSpaceOnUse">
<stop stop-color="#808080" stop-opacity="0.25"/>
<stop offset="0.54" stop-color="#808080" stop-opacity="0.12"/>
<stop offset="1" stop-color="#808080" stop-opacity="0.1"/>
</linearGradient>
<linearGradient id="paint5_linear_30_390" x1="46.9725" y1="102.852" x2="46.9725" y2="73.2656" gradientUnits="userSpaceOnUse">
<stop stop-color="#808080" stop-opacity="0.25"/>
<stop offset="0.54" stop-color="#808080" stop-opacity="0.12"/>
<stop offset="1" stop-color="#808080" stop-opacity="0.1"/>
</linearGradient>
<linearGradient id="paint6_linear_30_390" x1="45.8229" y1="127.377" x2="45.8229" y2="101.116" gradientUnits="userSpaceOnUse">
<stop stop-color="#808080" stop-opacity="0.25"/>
<stop offset="0.54" stop-color="#808080" stop-opacity="0.12"/>
<stop offset="1" stop-color="#808080" stop-opacity="0.1"/>
</linearGradient>
<linearGradient id="paint7_linear_30_390" x1="84.969" y1="91.3314" x2="84.969" y2="48.2012" gradientUnits="userSpaceOnUse">
<stop stop-color="#808080" stop-opacity="0.25"/>
<stop offset="0.54" stop-color="#808080" stop-opacity="0.12"/>
<stop offset="1" stop-color="#808080" stop-opacity="0.1"/>
</linearGradient>
<linearGradient id="paint8_linear_30_390" x1="49.1711" y1="78.5067" x2="49.1711" y2="45.6525" gradientUnits="userSpaceOnUse">
<stop stop-color="#808080" stop-opacity="0.25"/>
<stop offset="0.54" stop-color="#808080" stop-opacity="0.12"/>
<stop offset="1" stop-color="#808080" stop-opacity="0.1"/>
</linearGradient>
</defs>
</svg>
